<svg xmlns="http://www.w3.org/2000/svg" width="401" height="401" viewBox="0 0 401 401" fill="none">
<path d="M139.742 128.74C154.218 112.379 168.531 96.3471 182.655 80.1496C185.213 77.2156 186.888 76.8664 189.859 79.637C197.143 86.429 204.745 92.8803 212.384 99.6133C211.615 100.759 211.166 101.626 210.539 102.335C184.952 131.31 159.349 160.271 133.75 189.234C124.63 199.552 125.195 210.91 135.273 219.969C146.06 229.665 157.22 229.369 166.734 218.719C184.713 198.591 202.189 178.005 220.453 158.142C244.28 132.229 282.809 131.241 308.078 161.247C328.073 184.99 322.84 215.805 305.341 235.479C276.665 267.72 248.172 300.124 219.629 332.484C218.543 333.715 217.739 335.194 216.562 336.91C207.667 329.027 199.635 322.077 191.92 314.791C191.2 314.111 191.886 310.785 192.937 309.564C203.149 297.694 213.574 286.006 223.947 274.275C242.375 253.432 260.831 232.614 279.234 211.748C287.226 202.685 288.071 193.135 281.75 185.066C273.854 174.987 263.062 171.46 253.786 176.296C251.217 177.635 248.939 179.81 246.983 182.007C229.812 201.297 212.836 220.762 195.609 240.001C185.738 251.026 174.01 259.323 158.981 261.566C144.011 263.801 130.304 260.605 118.051 251.344C105.169 241.608 95.5822 229.9 92.8524 213.404C90.3169 198.083 93.661 183.971 102.878 171.917C112.871 158.848 124.159 146.769 134.89 134.264C136.409 132.494 137.971 130.761 139.742 128.74Z" fill="#FDFDFD"/>
</svg>